<svg width="2644" height="392" id="g-architecture" xmlns="http://www.w3.org/2000/svg" viewBox="-8 -8 2644.0234375 391.51953125" role="graphics-document document" aria-roledescription="flowchart-v2"><rect x="-8.0" y="-8.0" width="2644.0234375" height="391.51953125" fill="#fbfbf9" stroke="none"/><style>#g-architecture{font-family:"trebuchet ms",verdana,arial,sans-serif;font-size:16px;fill:#000000;}#g-architecture .error-icon{fill:#552222;}#g-architecture .error-text{fill:#552222;stroke:#552222;}#g-architecture .edge-thickness-normal{stroke-width:2px;}#g-architecture .edge-thickness-thick{stroke-width:3.5px;}#g-architecture .edge-pattern-solid{stroke-dasharray:0;}#g-architecture .edge-pattern-dashed{stroke-dasharray:3;}#g-architecture .edge-pattern-dotted{stroke-dasharray:2;}#g-architecture .marker{fill:#666;stroke:#666;}#g-architecture .marker.cross{stroke:#666;}#g-architecture svg{font-family:"trebuchet ms",verdana,arial,sans-serif;font-size:16px;}#g-architecture .label{font-family:"trebuchet ms",verdana,arial,sans-serif;color:#000000;}#g-architecture .cluster-label text{fill:#333;}#g-architecture .cluster-label span,#g-architecture p{color:#333;}#g-architecture .label text,#g-architecture span,#g-architecture p{fill:#000000;color:#000000;}#g-architecture .node rect,#g-architecture .node circle,#g-architecture .node ellipse,#g-architecture .node polygon,#g-architecture .node path{fill:#eee;stroke:#999;stroke-width:1px;}#g-architecture .flowchart-label text{text-anchor:middle;}#g-architecture .node .katex path{fill:#000;stroke:#000;stroke-width:1px;}#g-architecture .node .label{text-align:center;}#g-architecture .node.clickable{cursor:pointer;}#g-architecture .arrowheadPath{fill:#333333;}#g-architecture .edgePath .path{stroke:#666;stroke-width:2.0px;}#g-architecture .flowchart-link{stroke:#666;fill:none;}#g-architecture .edgeLabel{background-color:white;text-align:center;}#g-architecture .edgeLabel rect{opacity:0.5;background-color:white;fill:white;}#g-architecture .labelBkg{background-color:rgba(255, 255, 255, 0.5);}#g-architecture .cluster rect{fill:hsl(0, 0%, 98.9215686275%);stroke:#707070;stroke-width:1px;}#g-architecture .cluster text{fill:#333;}#g-architecture .cluster span,#g-architecture p{color:#333;}#g-architecture div.mermaidTooltip{position:absolute;text-align:center;max-width:200px;padding:2px;font-family:"trebuchet ms",verdana,arial,sans-serif;font-size:12px;background:hsl(-160, 0%, 93.3333333333%);border:1px solid #707070;border-radius:2px;pointer-events:none;z-index:100;}#g-architecture .flowchartTitleText{text-anchor:middle;font-size:18px;fill:#000000;}#g-architecture :root{--mermaid-font-family:"trebuchet ms",verdana,arial,sans-serif;}</style><g><marker id="g-architecture_flowchart-pointEnd" class="marker flowchart" viewBox="0 0 10 10" refX="6" refY="5" markerUnits="userSpaceOnUse" markerWidth="12" markerHeight="12" orient="auto"><path d="M 0 0 L 10 5 L 0 10 z" class="arrowMarkerPath" style="stroke-width: 1; stroke-dasharray: 1, 0;"></path></marker><marker id="g-architecture_flowchart-pointStart" class="marker flowchart" viewBox="0 0 10 10" refX="4.5" refY="5" markerUnits="userSpaceOnUse" markerWidth="12" markerHeight="12" orient="auto"><path d="M 0 5 L 10 10 L 10 0 z" class="arrowMarkerPath" style="stroke-width: 1; stroke-dasharray: 1, 0;"></path></marker><marker id="g-architecture_flowchart-circleEnd" class="marker flowchart" viewBox="0 0 10 10" refX="11" refY="5" markerUnits="userSpaceOnUse" markerWidth="11" markerHeight="11" orient="auto"><circle cx="5" cy="5" r="5" class="arrowMarkerPath" style="stroke-width: 1; stroke-dasharray: 1, 0;"></circle></marker><marker id="g-architecture_flowchart-circleStart" class="marker flowchart" viewBox="0 0 10 10" refX="-1" refY="5" markerUnits="userSpaceOnUse" markerWidth="11" markerHeight="11" orient="auto"><circle cx="5" cy="5" r="5" class="arrowMarkerPath" style="stroke-width: 1; stroke-dasharray: 1, 0;"></circle></marker><marker id="g-architecture_flowchart-crossEnd" class="marker cross flowchart" viewBox="0 0 11 11" refX="12" refY="5.2" markerUnits="userSpaceOnUse" markerWidth="11" markerHeight="11" orient="auto"><path d="M 1,1 l 9,9 M 10,1 l -9,9" class="arrowMarkerPath" style="stroke-width: 2; stroke-dasharray: 1, 0;"></path></marker><marker id="g-architecture_flowchart-crossStart" class="marker cross flowchart" viewBox="0 0 11 11" refX="-1" refY="5.2" markerUnits="userSpaceOnUse" markerWidth="11" markerHeight="11" orient="auto"><path d="M 1,1 l 9,9 M 10,1 l -9,9" class="arrowMarkerPath" style="stroke-width: 2; stroke-dasharray: 1, 0;"></path></marker><g class="root"><g class="clusters"><g class="cluster default flowchart-label" id="prove"><rect style="" rx="0" ry="0" x="0" y="238.78252983093262" width="1660.2734375" height="102"></rect><g class="cluster-label" transform="translate(830.13671875, 238.78252983093262)"><text style=""><tspan xml:space="preserve" dy="1em" x="0" class="row">Comparison harness, needs Spark</tspan></text></g></g><g class="cluster default flowchart-label" id="classify"><rect style="" rx="0" ry="0" x="1710.2734375" y="0" width="917.75" height="375.51953125"></rect><g class="cluster-label" transform="translate(2169.1484375, 0)"><text style=""><tspan xml:space="preserve" dy="1em" x="0" class="row">Classifier</tspan></text></g></g><g class="cluster default flowchart-label" id="parse"><rect style="" rx="0" ry="0" x="1071.6015625" y="76.41278266906738" width="588.671875" height="118"></rect><g class="cluster-label" transform="translate(1365.9375, 76.41278266906738)"><text style=""><tspan xml:space="preserve" dy="1em" x="0" class="row">Parser, no JVM needed</tspan></text></g></g><g class="cluster default flowchart-label" id="source"><rect style="" rx="0" ry="0" x="739.6015625" y="52.04303550720215" width="282" height="166.73949432373047"></rect><g class="cluster-label" transform="translate(880.6015625, 52.04303550720215)"><text style=""><tspan xml:space="preserve" dy="1em" x="0" class="row">Any Spark job, anywhere</tspan></text></g></g></g><g class="edgePaths"><path d="M996.602,135.413L1000.768,135.413C1004.935,135.413,1013.268,135.413,1021.602,135.413C1029.935,135.413,1038.268,135.413,1046.602,135.413C1054.935,135.413,1063.268,135.413,1070.718,135.413C1078.168,135.413,1084.735,135.413,1088.018,135.413L1091.302,135.413" id="L-A-B-0" class="edge-thickness-normal edge-pattern-solid flowchart-link LS-A LE-B" style="fill:none;" marker-end="url(#g-architecture_flowchart-pointEnd)"></path><path d="M1367.961,135.413L1372.128,135.413C1376.294,135.413,1384.628,135.413,1392.658,135.413C1400.688,135.413,1408.415,135.413,1412.278,135.413L1416.141,135.413" id="L-B-C-0" class="edge-thickness-normal edge-pattern-solid flowchart-link LS-B LE-C" style="fill:none;" marker-end="url(#g-architecture_flowchart-pointEnd)"></path><path d="M1631.793,135.413L1636.54,135.413C1641.286,135.413,1650.78,135.413,1659.693,135.413C1668.607,135.413,1676.94,135.413,1685.273,135.413C1693.607,135.413,1701.94,135.413,1720.617,143.834C1739.294,152.254,1768.314,169.096,1782.824,177.517L1797.334,185.937" id="L-C-D-0" class="edge-thickness-normal edge-pattern-solid flowchart-link LS-C LE-D" style="fill:none;" marker-end="url(#g-architecture_flowchart-pointEnd)"></path><path d="M1951.273,212.598L1955.44,212.598C1959.607,212.598,1967.94,212.598,1975.474,212.664C1983.007,212.73,1989.741,212.862,1993.108,212.928L1996.474,212.994" id="L-D-E-0" class="edge-thickness-normal edge-pattern-solid flowchart-link LS-D LE-E" style="fill:none;" marker-end="url(#g-architecture_flowchart-pointEnd)"></path><path d="M2126.091,180.923L2137.613,172.736C2149.134,164.548,2172.176,148.174,2191.057,140.061C2209.938,131.948,2224.657,132.096,2232.017,132.171L2239.376,132.245" id="L-E-F-0" class="edge-thickness-normal edge-pattern-solid flowchart-link LS-E LE-F" style="fill:none;" marker-end="url(#g-architecture_flowchart-pointEnd)"></path><path d="M2126.091,245.272L2137.613,253.293C2149.134,261.313,2172.176,277.355,2189.056,285.376C2205.936,293.396,2216.654,293.396,2222.013,293.396L2227.372,293.396" id="L-E-I-0" class="edge-thickness-normal edge-pattern-solid flowchart-link LS-E LE-I" style="fill:none;" marker-end="url(#g-architecture_flowchart-pointEnd)"></path><path d="M2414.748,111.176L2426.345,107.78C2437.941,104.383,2461.135,97.591,2478.09,94.195C2495.046,90.799,2505.764,90.799,2511.122,90.799L2516.481,90.799" id="L-F-G-0" class="edge-thickness-normal edge-pattern-solid flowchart-link LS-F LE-G" style="fill:none;" marker-end="url(#g-architecture_flowchart-pointEnd)"></path><path d="M2401.595,166.575L2415.384,174.245C2429.173,181.916,2456.751,197.257,2476.175,204.927C2495.599,212.598,2506.87,212.598,2512.506,212.598L2518.141,212.598" id="L-F-H-0" class="edge-thickness-normal edge-pattern-solid flowchart-link LS-F LE-H" style="fill:none;" marker-end="url(#g-architecture_flowchart-pointEnd)"></path><path d="M298.109,289.783L302.276,289.783C306.443,289.783,314.776,289.783,322.226,289.783C329.676,289.783,336.243,289.783,339.526,289.783L342.809,289.783" id="L-J-K-0" class="edge-thickness-normal edge-pattern-solid flowchart-link LS-J LE-K" style="fill:none;" marker-end="url(#g-architecture_flowchart-pointEnd)"></path><path d="M689.602,289.783L693.768,289.783C697.935,289.783,706.268,289.783,714.602,289.783C722.935,289.783,731.268,289.783,740.895,289.783C750.522,289.783,761.443,289.783,766.904,289.783L772.364,289.783" id="L-K-L-0" class="edge-thickness-normal edge-pattern-solid flowchart-link LS-K LE-L" style="fill:none;" marker-end="url(#g-architecture_flowchart-pointEnd)"></path><path d="M983.539,289.783L989.883,289.783C996.227,289.783,1008.914,289.783,1019.424,289.783C1029.935,289.783,1038.268,289.783,1046.602,289.783C1054.935,289.783,1063.268,289.783,1075.26,289.783C1087.252,289.783,1102.902,289.783,1110.727,289.783L1118.552,289.783" id="L-L-M-0" class="edge-thickness-normal edge-pattern-solid flowchart-link LS-L LE-M" style="fill:none;" marker-end="url(#g-architecture_flowchart-pointEnd)"></path><path d="M1340.711,289.783L1349.419,289.783C1358.128,289.783,1375.544,289.783,1387.536,289.783C1399.528,289.783,1406.094,289.783,1409.378,289.783L1412.661,289.783" id="L-M-N-0" class="edge-thickness-normal edge-pattern-solid flowchart-link LS-M LE-N" style="fill:none;" marker-end="url(#g-architecture_flowchart-pointEnd)"></path><path d="M1635.273,289.783L1639.44,289.783C1643.607,289.783,1651.94,289.783,1660.273,289.783C1668.607,289.783,1676.94,289.783,1685.273,289.783C1693.607,289.783,1701.94,289.783,1720.617,281.362C1739.294,272.941,1768.314,256.099,1782.824,247.679L1797.334,239.258" id="L-N-D-0" class="edge-thickness-normal edge-pattern-solid flowchart-link LS-N LE-D" style="fill:none;" marker-end="url(#g-architecture_flowchart-pointEnd)"></path></g><g class="edgeLabels"><g class="edgeLabel"><g class="label" transform="translate(0, 0)"><rect rx="0" ry="0" width="0" height="0"></rect><text style=""><tspan xml:space="preserve" dy="1em" x="0" class="row"></tspan></text></g></g><g class="edgeLabel"><g class="label" transform="translate(0, 0)"><rect rx="0" ry="0" width="0" height="0"></rect><text style=""><tspan xml:space="preserve" dy="1em" x="0" class="row"></tspan></text></g></g><g class="edgeLabel"><g class="label" transform="translate(0, 0)"><rect rx="0" ry="0" width="0" height="0"></rect><text style=""><tspan xml:space="preserve" dy="1em" x="0" class="row"></tspan></text></g></g><g class="edgeLabel"><g class="label" transform="translate(0, 0)"><rect rx="0" ry="0" width="0" height="0"></rect><text style=""><tspan xml:space="preserve" dy="1em" x="0" class="row"></tspan></text></g></g><g class="edgeLabel" transform="translate(2195.21875, 131.798828125)"><g class="label" transform="translate(-12.453125, -8.5)"><rect rx="0" ry="0" width="24.86549186706543" height="19.104339599609375"></rect><text style=""><tspan xml:space="preserve" dy="1em" x="0" class="row">yes</tspan></text></g></g><g class="edgeLabel" transform="translate(2195.21875, 293.396484375)"><g class="label" transform="translate(-8.94921875, -8.5)"><rect rx="0" ry="0" width="18.433956146240234" height="19.104339599609375"></rect><text style=""><tspan xml:space="preserve" dy="1em" x="0" class="row">no</tspan></text></g></g><g class="edgeLabel" transform="translate(2484.328125, 90.798828125)"><g class="label" transform="translate(-12.453125, -8.5)"><rect rx="0" ry="0" width="24.86549186706543" height="19.104339599609375"></rect><text style=""><tspan xml:space="preserve" dy="1em" x="0" class="row">yes</tspan></text></g></g><g class="edgeLabel" transform="translate(2484.328125, 212.59765625)"><g class="label" transform="translate(-8.94921875, -8.5)"><rect rx="0" ry="0" width="18.433956146240234" height="19.104339599609375"></rect><text style=""><tspan xml:space="preserve" dy="1em" x="0" class="row">no</tspan></text></g></g><g class="edgeLabel"><g class="label" transform="translate(0, 0)"><rect rx="0" ry="0" width="0" height="0"></rect><text style=""><tspan xml:space="preserve" dy="1em" x="0" class="row"></tspan></text></g></g><g class="edgeLabel"><g class="label" transform="translate(0, 0)"><rect rx="0" ry="0" width="0" height="0"></rect><text style=""><tspan xml:space="preserve" dy="1em" x="0" class="row"></tspan></text></g></g><g class="edgeLabel"><g class="label" transform="translate(0, 0)"><rect rx="0" ry="0" width="0" height="0"></rect><text style=""><tspan xml:space="preserve" dy="1em" x="0" class="row"></tspan></text></g></g><g class="edgeLabel"><g class="label" transform="translate(0, 0)"><rect rx="0" ry="0" width="0" height="0"></rect><text style=""><tspan xml:space="preserve" dy="1em" x="0" class="row"></tspan></text></g></g><g class="edgeLabel"><g class="label" transform="translate(0, 0)"><rect rx="0" ry="0" width="0" height="0"></rect><text style=""><tspan xml:space="preserve" dy="1em" x="0" class="row"></tspan></text></g></g></g><g class="nodes"><g class="node default default flowchart-label" id="flowchart-J-9" data-node="true" data-id="J" transform="translate(161.5546875, 289.7825298309326)"><rect class="basic label-container" style="" rx="0" ry="0" x="-136.5546875" y="-16" width="273.109375" height="32"></rect><g class="label" style="" transform="translate(0, -8.5)"><rect></rect><text style=""><tspan xml:space="preserve" dy="1em" x="0" class="row">workload: deterministic skewed data</tspan></text></g></g><g class="node default default flowchart-label" id="flowchart-K-10" data-node="true" data-id="K" transform="translate(518.85546875, 289.7825298309326)"><rect class="basic label-container" style="" rx="0" ry="0" x="-170.74609375" y="-16" width="341.4921875" height="32"></rect><g class="label" style="" transform="translate(0, -8.5)"><rect></rect><text style=""><tspan xml:space="preserve" dy="1em" x="0" class="row">strategies: naive, AQE, broadcast, salt, isolate</tspan></text></g></g><g class="node default default flowchart-label" id="flowchart-L-11" data-node="true" data-id="L" transform="translate(880.6015625, 289.7825298309326)"><rect class="basic label-container" style="" rx="0" ry="0" x="-102.9375" y="-16" width="205.875" height="32"></rect><g class="label" style="" transform="translate(0, -8.5)"><rect></rect><text style=""><tspan xml:space="preserve" dy="1em" x="0" class="row">warmup + repeats, median</tspan></text></g></g><g class="node default default flowchart-label" id="flowchart-M-12" data-node="true" data-id="M" transform="translate(1232.28125, 289.7825298309326)"><rect class="basic label-container" style="" rx="0" ry="0" x="-108.4296875" y="-16" width="216.859375" height="32"></rect><g class="label" style="" transform="translate(0, -8.5)"><rect></rect><text style=""><tspan xml:space="preserve" dy="1em" x="0" class="row">correctness check vs control</tspan></text></g></g><g class="node default default flowchart-label" id="flowchart-N-13" data-node="true" data-id="N" transform="translate(1526.6171875, 289.7825298309326)"><rect class="basic label-container" style="" rx="0" ry="0" x="-108.65625" y="-16" width="217.3125" height="32"></rect><g class="label" style="" transform="translate(0, -8.5)"><rect></rect><text style=""><tspan xml:space="preserve" dy="1em" x="0" class="row">diagnose each run's own log</tspan></text></g></g><g class="node default default flowchart-label" id="flowchart-D-3" data-node="true" data-id="D" transform="translate(1843.2734375, 212.59765625)"><rect class="basic label-container" style="" rx="0" ry="0" x="-108" y="-24" width="216" height="48"></rect><g class="label" style="" transform="translate(0, -16.5)"><rect></rect><text style=""><tspan xml:space="preserve" dy="1em" x="0" class="row">distribution per stage</tspan><tspan xml:space="preserve" dy="1em" x="0" class="row">median, p95, max, ratio, gini</tspan></text></g></g><g class="node default default flowchart-label" id="flowchart-E-4" data-node="true" data-id="E" transform="translate(2079.51953125, 212.59765625)"><polygon points="78.24609375,0 156.4921875,-78.24609375 78.24609375,-156.4921875 0,-78.24609375" class="label-container" transform="translate(-78.24609375,78.24609375)" style=""></polygon><g class="label" style="" transform="translate(0, -8.5)"><rect></rect><text style=""><tspan xml:space="preserve" dy="1em" x="0" class="row">time ratio high?</tspan></text></g></g><g class="node default default flowchart-label" id="flowchart-F-5" data-node="true" data-id="F" transform="translate(2339.7734375, 131.798828125)"><polygon points="95.59765625,0 191.1953125,-95.59765625 95.59765625,-191.1953125 0,-95.59765625" class="label-container" transform="translate(-95.59765625,95.59765625)" style=""></polygon><g class="label" style="" transform="translate(0, -8.5)"><rect></rect><text style=""><tspan xml:space="preserve" dy="1em" x="0" class="row">bytes ratio high too?</tspan></text></g></g><g class="node default default flowchart-label" id="flowchart-G-6" data-node="true" data-id="G" transform="translate(2562.40234375, 90.798828125)"><rect class="basic label-container" style="" rx="0" ry="0" x="-40.62109375" y="-16" width="81.2421875" height="32"></rect><g class="label" style="" transform="translate(0, -8.5)"><rect></rect><text style=""><tspan xml:space="preserve" dy="1em" x="0" class="row">key skew</tspan></text></g></g><g class="node default default flowchart-label" id="flowchart-H-7" data-node="true" data-id="H" transform="translate(2562.40234375, 212.59765625)"><rect class="basic label-container" style="" rx="0" ry="0" x="-38.9609375" y="-16" width="77.921875" height="32"></rect><g class="label" style="" transform="translate(0, -8.5)"><rect></rect><text style=""><tspan xml:space="preserve" dy="1em" x="0" class="row">straggler</tspan></text></g></g><g class="node default default flowchart-label" id="flowchart-I-8" data-node="true" data-id="I" transform="translate(2339.7734375, 293.396484375)"><rect class="basic label-container" style="" rx="0" ry="0" x="-107.1015625" y="-16" width="214.203125" height="32"></rect><g class="label" style="" transform="translate(0, -8.5)"><rect></rect><text style=""><tspan xml:space="preserve" dy="1em" x="0" class="row">spill / too few tasks / healthy</tspan></text></g></g><g class="node default default flowchart-label" id="flowchart-B-1" data-node="true" data-id="B" transform="translate(1232.28125, 135.41278266906738)"><rect class="basic label-container" style="" rx="0" ry="0" x="-135.6796875" y="-24" width="271.359375" height="48"></rect><g class="label" style="" transform="translate(0, -16.5)"><rect></rect><text style=""><tspan xml:space="preserve" dy="1em" x="0" class="row">events to TaskRecord</tspan><tspan xml:space="preserve" dy="1em" x="0" class="row">run ms, shuffle bytes, spill, GC, host</tspan></text></g></g><g class="node default default flowchart-label" id="flowchart-C-2" data-node="true" data-id="C" transform="translate(1526.6171875, 135.41278266906738)"><rect class="basic label-container" style="" rx="0" ry="0" x="-105.17578125" y="-16" width="210.3515625" height="32"></rect><g class="label" style="" transform="translate(0, -8.5)"><rect></rect><text style=""><tspan xml:space="preserve" dy="1em" x="0" class="row">group by stage and attempt</tspan></text></g></g><g class="node default default flowchart-label" id="flowchart-A-0" data-node="true" data-id="A" transform="translate(880.6015625, 135.41278266906738)"><path style="" d="M 0,16.246498599439775 a 116,16.246498599439775 0,0,0 232 0 a 116,16.246498599439775 0,0,0 -232 0 l 0,64.24649859943978 a 116,16.246498599439775 0,0,0 232 0 l 0,-64.24649859943978" transform="translate(-116,-48.36974789915966)"></path><g class="label" style="" transform="translate(0, -16.5)"><rect></rect><text style=""><tspan xml:space="preserve" dy="1em" x="0" class="row">spark.eventLog.dir</tspan><tspan xml:space="preserve" dy="1em" x="0" class="row">JSON, often .zstd, often rolling</tspan></text></g></g></g></g></g></svg>